<svg xmlns="http://www.w3.org/2000/svg" xmlns:xlink="http://www.w3.org/1999/xlink" xmlns:lucid="lucid" width="1400" height="628"><g transform="translate(-100 -12)" lucid:page-tab-id="0_0"><path d="M120 37c0-2.76 2.24-5 5-5h350c2.76 0 5 2.24 5 5v230c0 2.76-2.24 5-5 5H125c-2.76 0-5-2.24-5-5z" stroke="#000" stroke-width="2" fill="#fff"/><path d="M120 70h360M120 171h360" stroke="#000" stroke-width="2" fill="none"/><use xlink:href="#a" transform="matrix(1,0,0,1,128,32) translate(107.775 22.6)"/><use xlink:href="#b" transform="matrix(1,0,0,1,132,77.6) translate(0 25)"/><use xlink:href="#c" transform="matrix(1,0,0,1,132,77.6) translate(15.5 25)"/><use xlink:href="#d" transform="matrix(1,0,0,1,132,77.6) translate(134.4 25)"/><use xlink:href="#e" transform="matrix(1,0,0,1,132,77.6) translate(149.9 25)"/><use xlink:href="#b" transform="matrix(1,0,0,1,132,77.6) translate(0 46.6)"/><use xlink:href="#f" transform="matrix(1,0,0,1,132,77.6) translate(15.5 46.6)"/><use xlink:href="#g" transform="matrix(1,0,0,1,132,77.6) translate(0 68.2)"/><use xlink:href="#h" transform="matrix(1,0,0,1,132,77.6) translate(10.95 68.2)"/><use xlink:href="#b" transform="matrix(1,0,0,1,132,178.8) translate(0 25)"/><use xlink:href="#i" transform="matrix(1,0,0,1,132,178.8) translate(15.5 25)"/><use xlink:href="#g" transform="matrix(1,0,0,1,132,178.8) translate(0 46.6)"/><use xlink:href="#j" transform="matrix(1,0,0,1,132,178.8) translate(10.95 46.6)"/><use xlink:href="#g" transform="matrix(1,0,0,1,132,178.8) translate(0 68.2)"/><use xlink:href="#k" transform="matrix(1,0,0,1,132,178.8) translate(10.95 68.2)"/><path d="M200 385c0-2.76 2.24-5 5-5h350c2.76 0 5 2.24 5 5v230c0 2.76-2.24 5-5 5H205c-2.76 0-5-2.24-5-5z" stroke="#000" stroke-width="2" fill="#fff"/><path d="M200 418h360M200 519h360" stroke="#000" stroke-width="2" fill="none"/><use xlink:href="#l" transform="matrix(1,0,0,1,208,380) translate(149.55 22.6)"/><use xlink:href="#b" transform="matrix(1,0,0,1,212,425.6) translate(0 25)"/><use xlink:href="#c" transform="matrix(1,0,0,1,212,425.6) translate(15.5 25)"/><use xlink:href="#d" transform="matrix(1,0,0,1,212,425.6) translate(134.4 25)"/><use xlink:href="#e" transform="matrix(1,0,0,1,212,425.6) translate(149.9 25)"/><use xlink:href="#b" transform="matrix(1,0,0,1,212,425.6) translate(0 46.6)"/><use xlink:href="#f" transform="matrix(1,0,0,1,212,425.6) translate(15.5 46.6)"/><use xlink:href="#g" transform="matrix(1,0,0,1,212,425.6) translate(0 68.2)"/><use xlink:href="#h" transform="matrix(1,0,0,1,212,425.6) translate(10.95 68.2)"/><g><use xlink:href="#b" transform="matrix(1,0,0,1,212,526.8000000000001) translate(0 25)"/><use xlink:href="#i" transform="matrix(1,0,0,1,212,526.8000000000001) translate(15.5 25)"/><use xlink:href="#g" transform="matrix(1,0,0,1,212,526.8000000000001) translate(0 46.6)"/><use xlink:href="#j" transform="matrix(1,0,0,1,212,526.8000000000001) translate(10.95 46.6)"/><use xlink:href="#g" transform="matrix(1,0,0,1,212,526.8000000000001) translate(0 68.2)"/><use xlink:href="#k" transform="matrix(1,0,0,1,212,526.8000000000001) translate(10.95 68.2)"/></g><path d="M600 345c0-2.76 2.24-5 5-5h350c2.76 0 5 2.24 5 5v230c0 2.76-2.24 5-5 5H605c-2.76 0-5-2.24-5-5z" stroke="#000" stroke-width="2" fill="#fff"/><path d="M600 378h360M600 479h360" stroke="#000" stroke-width="2" fill="none"/><g><use xlink:href="#l" transform="matrix(1,0,0,1,608,340) translate(149.55 22.6)"/></g><g><use xlink:href="#b" transform="matrix(1,0,0,1,612,385.6) translate(0 25)"/><use xlink:href="#c" transform="matrix(1,0,0,1,612,385.6) translate(15.5 25)"/><use xlink:href="#d" transform="matrix(1,0,0,1,612,385.6) translate(134.4 25)"/><use xlink:href="#e" transform="matrix(1,0,0,1,612,385.6) translate(149.9 25)"/><use xlink:href="#b" transform="matrix(1,0,0,1,612,385.6) translate(0 46.6)"/><use xlink:href="#f" transform="matrix(1,0,0,1,612,385.6) translate(15.5 46.6)"/><use xlink:href="#g" transform="matrix(1,0,0,1,612,385.6) translate(0 68.2)"/><use xlink:href="#h" transform="matrix(1,0,0,1,612,385.6) translate(10.95 68.2)"/></g><g><use xlink:href="#b" transform="matrix(1,0,0,1,612,486.8) translate(0 25)"/><use xlink:href="#i" transform="matrix(1,0,0,1,612,486.8) translate(15.5 25)"/><use xlink:href="#g" transform="matrix(1,0,0,1,612,486.8) translate(0 46.6)"/><use xlink:href="#j" transform="matrix(1,0,0,1,612,486.8) translate(10.95 46.6)"/><use xlink:href="#g" transform="matrix(1,0,0,1,612,486.8) translate(0 68.2)"/><use xlink:href="#k" transform="matrix(1,0,0,1,612,486.8) translate(10.95 68.2)"/></g><path d="M1120 385c0-2.76 2.24-5 5-5h350c2.76 0 5 2.24 5 5v230c0 2.76-2.24 5-5 5h-350c-2.76 0-5-2.24-5-5z" stroke="#000" stroke-width="2" fill="#fff"/><path d="M1120 418h360m-360 101h360" stroke="#000" stroke-width="2" fill="none"/><g><use xlink:href="#l" transform="matrix(1,0,0,1,1128,380) translate(149.55 22.6)"/></g><g><use xlink:href="#b" transform="matrix(1,0,0,1,1132,425.6) translate(0 25)"/><use xlink:href="#c" transform="matrix(1,0,0,1,1132,425.6) translate(15.5 25)"/><use xlink:href="#d" transform="matrix(1,0,0,1,1132,425.6) translate(134.4 25)"/><use xlink:href="#e" transform="matrix(1,0,0,1,1132,425.6) translate(149.9 25)"/><use xlink:href="#b" transform="matrix(1,0,0,1,1132,425.6) translate(0 46.6)"/><use xlink:href="#f" transform="matrix(1,0,0,1,1132,425.6) translate(15.5 46.6)"/><use xlink:href="#g" transform="matrix(1,0,0,1,1132,425.6) translate(0 68.2)"/><use xlink:href="#h" transform="matrix(1,0,0,1,1132,425.6) translate(10.95 68.2)"/></g><g><use xlink:href="#b" transform="matrix(1,0,0,1,1132,526.8000000000001) translate(0 25)"/><use xlink:href="#i" transform="matrix(1,0,0,1,1132,526.8000000000001) translate(15.5 25)"/><use xlink:href="#g" transform="matrix(1,0,0,1,1132,526.8000000000001) translate(0 46.6)"/><use xlink:href="#j" transform="matrix(1,0,0,1,1132,526.8000000000001) translate(10.95 46.6)"/><use xlink:href="#g" transform="matrix(1,0,0,1,1132,526.8000000000001) translate(0 68.2)"/><use xlink:href="#k" transform="matrix(1,0,0,1,1132,526.8000000000001) translate(10.95 68.2)"/></g><defs><path d="M160-131c35 5 61 23 61 61C221 17 115-2 30 0v-248c76 3 177-17 177 60 0 33-19 50-47 57zm-97-11c50-1 110 9 110-42 0-47-63-36-110-37v79zm0 115c55-2 124 14 124-45 0-56-70-42-124-44v89" id="m"/><path d="M141-36C126-15 110 5 73 4 37 3 15-17 15-53c-1-64 63-63 125-63 3-35-9-54-41-54-24 1-41 7-42 31l-33-3c5-37 33-52 76-52 45 0 72 20 72 64v82c-1 20 7 32 28 27v20c-31 9-61-2-59-35zM48-53c0 20 12 33 32 33 41-3 63-29 60-74-43 2-92-5-92 41" id="n"/><path d="M135-143c-3-34-86-38-87 0 15 53 115 12 119 90S17 21 10-45l28-5c4 36 97 45 98 0-10-56-113-15-118-90-4-57 82-63 122-42 12 7 21 19 24 35" id="o"/><path d="M100-194c63 0 86 42 84 106H49c0 40 14 67 53 68 26 1 43-12 49-29l28 8c-11 28-37 45-77 45C44 4 14-33 15-96c1-61 26-98 85-98zm52 81c6-60-76-77-97-28-3 7-6 17-6 28h103" id="p"/><path d="M137 0h-34L2-248h35l83 218 83-218h36" id="q"/><path d="M24-231v-30h32v30H24zM24 0v-190h32V0H24" id="r"/><path d="M206 0h-36l-40-164L89 0H53L-1-190h32L70-26l43-164h34l41 164 42-164h31" id="s"/><path d="M240 0l2-218c-23 76-54 145-80 218h-23L58-218 59 0H30v-248h44l77 211c21-75 51-140 76-211h43V0h-30" id="t"/><path d="M100-194c62-1 85 37 85 99 1 63-27 99-86 99S16-35 15-95c0-66 28-99 85-99zM99-20c44 1 53-31 53-75 0-43-8-75-51-75s-53 32-53 75 10 74 51 75" id="u"/><path d="M85-194c31 0 48 13 60 33l-1-100h32l1 261h-30c-2-10 0-23-3-31C134-8 116 4 85 4 32 4 16-35 15-94c0-66 23-100 70-100zm9 24c-40 0-46 34-46 75 0 40 6 74 45 74 42 0 51-32 51-76 0-42-9-74-50-73" id="v"/><path d="M24 0v-261h32V0H24" id="w"/><g id="a"><use transform="matrix(0.05,0,0,0.05,0,0)" xlink:href="#m"/><use transform="matrix(0.05,0,0,0.05,12,0)" xlink:href="#n"/><use transform="matrix(0.05,0,0,0.05,22,0)" xlink:href="#o"/><use transform="matrix(0.05,0,0,0.05,31,0)" xlink:href="#p"/><use transform="matrix(0.05,0,0,0.05,41,0)" xlink:href="#q"/><use transform="matrix(0.05,0,0,0.05,52.650000000000006,0)" xlink:href="#r"/><use transform="matrix(0.05,0,0,0.05,56.6,0)" xlink:href="#p"/><use transform="matrix(0.05,0,0,0.05,66.6,0)" xlink:href="#s"/><use transform="matrix(0.05,0,0,0.05,79.55,0)" xlink:href="#t"/><use transform="matrix(0.05,0,0,0.05,94.5,0)" xlink:href="#u"/><use transform="matrix(0.05,0,0,0.05,104.5,0)" xlink:href="#v"/><use transform="matrix(0.05,0,0,0.05,114.5,0)" xlink:href="#p"/><use transform="matrix(0.05,0,0,0.05,124.5,0)" xlink:href="#w"/></g><path d="M118-107v75H92v-75H18v-26h74v-75h26v75h74v26h-74" id="x"/><use transform="matrix(0.05,0,0,0.05,0,0)" xlink:href="#x" id="b"/><path d="M59-47c-2 24 18 29 38 22v24C64 9 27 4 27-40v-127H5v-23h24l9-43h21v43h35v23H59v120" id="y"/><path d="M114-163C36-179 61-72 57 0H25l-1-190h30c1 12-1 29 2 39 6-27 23-49 58-41v29" id="z"/><path d="M115-194c53 0 69 39 70 98 0 66-23 100-70 100C84 3 66-7 56-30L54 0H23l1-261h32v101c10-23 28-34 59-34zm-8 174c40 0 45-34 45-75 0-40-5-75-45-74-42 0-51 32-51 76 0 43 10 73 51 73" id="A"/><path d="M84 4C-5 8 30-112 23-190h32v120c0 31 7 50 39 49 72-2 45-101 50-169h31l1 190h-30c-1-10 1-25-2-33-11 22-28 36-60 37" id="B"/><path d="M27 0v-27h64v-190l-56 39v-29l58-41h29v221h61V0H27" id="C"/><path d="M33-154v-36h34v36H33zM33 0v-36h34V0H33" id="D"/><path d="M179-190L93 31C79 59 56 82 12 73V49c39 6 53-20 64-50L1-190h34L92-34l54-156h33" id="E"/><path d="M115-194c55 1 70 41 70 98S169 2 115 4C84 4 66-9 55-30l1 105H24l-1-265h31l2 30c10-21 28-34 59-34zm-8 174c40 0 45-34 45-75s-6-73-45-74c-42 0-51 32-51 76 0 43 10 73 51 73" id="F"/><g id="c"><use transform="matrix(0.05,0,0,0.05,0,0)" xlink:href="#n"/><use transform="matrix(0.05,0,0,0.05,10,0)" xlink:href="#y"/><use transform="matrix(0.05,0,0,0.05,15,0)" xlink:href="#y"/><use transform="matrix(0.05,0,0,0.05,20,0)" xlink:href="#z"/><use transform="matrix(0.05,0,0,0.05,25.950000000000003,0)" xlink:href="#r"/><use transform="matrix(0.05,0,0,0.05,29.899999999999995,0)" xlink:href="#A"/><use transform="matrix(0.05,0,0,0.05,39.9,0)" xlink:href="#B"/><use transform="matrix(0.05,0,0,0.05,49.9,0)" xlink:href="#y"/><use transform="matrix(0.05,0,0,0.05,54.900000000000006,0)" xlink:href="#p"/><use transform="matrix(0.05,0,0,0.05,64.9,0)" xlink:href="#C"/><use transform="matrix(0.05,0,0,0.05,74.9,0)" xlink:href="#D"/><use transform="matrix(0.05,0,0,0.05,79.9,0)" xlink:href="#y"/><use transform="matrix(0.05,0,0,0.05,84.9,0)" xlink:href="#E"/><use transform="matrix(0.05,0,0,0.05,93.9,0)" xlink:href="#F"/><use transform="matrix(0.05,0,0,0.05,103.9,0)" xlink:href="#p"/></g><path d="M18-150v-26h174v26H18zm0 90v-26h174v26H18" id="G"/><use transform="matrix(0.05,0,0,0.05,0,0)" xlink:href="#G" id="d"/><path d="M101-234c-31-9-42 10-38 44h38v23H63V0H32v-167H5v-23h27c-7-52 17-82 69-68v24" id="H"/><g id="e"><use transform="matrix(0.05,0,0,0.05,0,0)" xlink:href="#v"/><use transform="matrix(0.05,0,0,0.05,10,0)" xlink:href="#p"/><use transform="matrix(0.05,0,0,0.05,20,0)" xlink:href="#H"/><use transform="matrix(0.05,0,0,0.05,25,0)" xlink:href="#n"/><use transform="matrix(0.05,0,0,0.05,35,0)" xlink:href="#B"/><use transform="matrix(0.05,0,0,0.05,45,0)" xlink:href="#w"/><use transform="matrix(0.05,0,0,0.05,48.95,0)" xlink:href="#y"/><use transform="matrix(0.05,0,0,0.05,53.95,0)" xlink:href="#q"/><use transform="matrix(0.05,0,0,0.05,64.6,0)" xlink:href="#n"/><use transform="matrix(0.05,0,0,0.05,74.6,0)" xlink:href="#w"/><use transform="matrix(0.05,0,0,0.05,78.55,0)" xlink:href="#B"/><use transform="matrix(0.05,0,0,0.05,88.55,0)" xlink:href="#p"/></g><path d="M101-251c82-7 93 87 43 132L82-64C71-53 59-42 53-27h129V0H18c2-99 128-94 128-182 0-28-16-43-45-43s-46 15-49 41l-32-3c6-41 34-60 81-64" id="I"/><g id="f"><use transform="matrix(0.05,0,0,0.05,0,0)" xlink:href="#n"/><use transform="matrix(0.05,0,0,0.05,10,0)" xlink:href="#y"/><use transform="matrix(0.05,0,0,0.05,15,0)" xlink:href="#y"/><use transform="matrix(0.05,0,0,0.05,20,0)" xlink:href="#z"/><use transform="matrix(0.05,0,0,0.05,25.950000000000003,0)" xlink:href="#r"/><use transform="matrix(0.05,0,0,0.05,29.899999999999995,0)" xlink:href="#A"/><use transform="matrix(0.05,0,0,0.05,39.9,0)" xlink:href="#B"/><use transform="matrix(0.05,0,0,0.05,49.9,0)" xlink:href="#y"/><use transform="matrix(0.05,0,0,0.05,54.900000000000006,0)" xlink:href="#p"/><use transform="matrix(0.05,0,0,0.05,64.9,0)" xlink:href="#I"/><use transform="matrix(0.05,0,0,0.05,74.9,0)" xlink:href="#D"/><use transform="matrix(0.05,0,0,0.05,79.9,0)" xlink:href="#y"/><use transform="matrix(0.05,0,0,0.05,84.9,0)" xlink:href="#E"/><use transform="matrix(0.05,0,0,0.05,93.9,0)" xlink:href="#F"/><use transform="matrix(0.05,0,0,0.05,103.9,0)" xlink:href="#p"/></g><path d="M16-82v-28h88v28H16" id="J"/><use transform="matrix(0.05,0,0,0.05,0,0)" xlink:href="#J" id="g"/><path d="M126-127c33 6 58 20 58 59 0 88-139 92-164 29-3-8-5-16-6-25l32-3c6 27 21 44 54 44 32 0 52-15 52-46 0-38-36-46-79-43v-28c39 1 72-4 72-42 0-27-17-43-46-43-28 0-47 15-49 41l-32-3c6-42 35-63 81-64 48-1 79 21 79 65 0 36-21 52-52 59" id="K"/><g id="h"><use transform="matrix(0.05,0,0,0.05,0,0)" xlink:href="#n"/><use transform="matrix(0.05,0,0,0.05,10,0)" xlink:href="#y"/><use transform="matrix(0.05,0,0,0.05,15,0)" xlink:href="#y"/><use transform="matrix(0.05,0,0,0.05,20,0)" xlink:href="#z"/><use transform="matrix(0.05,0,0,0.05,25.950000000000003,0)" xlink:href="#r"/><use transform="matrix(0.05,0,0,0.05,29.899999999999995,0)" xlink:href="#A"/><use transform="matrix(0.05,0,0,0.05,39.9,0)" xlink:href="#B"/><use transform="matrix(0.05,0,0,0.05,49.9,0)" xlink:href="#y"/><use transform="matrix(0.05,0,0,0.05,54.900000000000006,0)" xlink:href="#p"/><use transform="matrix(0.05,0,0,0.05,64.9,0)" xlink:href="#K"/><use transform="matrix(0.05,0,0,0.05,74.9,0)" xlink:href="#D"/><use transform="matrix(0.05,0,0,0.05,79.9,0)" xlink:href="#y"/><use transform="matrix(0.05,0,0,0.05,84.9,0)" xlink:href="#E"/><use transform="matrix(0.05,0,0,0.05,93.9,0)" xlink:href="#F"/><use transform="matrix(0.05,0,0,0.05,103.9,0)" xlink:href="#p"/></g><path d="M117-194c89-4 53 116 60 194h-32v-121c0-31-8-49-39-48C34-167 62-67 57 0H25l-1-190h30c1 10-1 24 2 32 11-22 29-35 61-36" id="L"/><path d="M87 75C49 33 22-17 22-94c0-76 28-126 65-167h31c-38 41-64 92-64 168S80 34 118 75H87" id="M"/><path d="M210-169c-67 3-38 105-44 169h-31v-121c0-29-5-50-35-48C34-165 62-65 56 0H25l-1-190h30c1 10-1 24 2 32 10-44 99-50 107 0 11-21 27-35 58-36 85-2 47 119 55 194h-31v-121c0-29-5-49-35-48" id="N"/><path d="M33-261c38 41 65 92 65 168S71 34 33 75H2C39 34 66-17 66-93S39-220 2-261h31" id="O"/><path d="M127-220V0H93v-220H8v-28h204v28h-85" id="P"/><g id="i"><use transform="matrix(0.05,0,0,0.05,0,0)" xlink:href="#u"/><use transform="matrix(0.05,0,0,0.05,10,0)" xlink:href="#F"/><use transform="matrix(0.05,0,0,0.05,20,0)" xlink:href="#p"/><use transform="matrix(0.05,0,0,0.05,30,0)" xlink:href="#z"/><use transform="matrix(0.05,0,0,0.05,35.95,0)" xlink:href="#n"/><use transform="matrix(0.05,0,0,0.05,45.95,0)" xlink:href="#y"/><use transform="matrix(0.05,0,0,0.05,50.95,0)" xlink:href="#r"/><use transform="matrix(0.05,0,0,0.05,54.900000000000006,0)" xlink:href="#u"/><use transform="matrix(0.05,0,0,0.05,64.9,0)" xlink:href="#L"/><use transform="matrix(0.05,0,0,0.05,74.9,0)" xlink:href="#C"/><use transform="matrix(0.05,0,0,0.05,84.9,0)" xlink:href="#M"/><use transform="matrix(0.05,0,0,0.05,90.85000000000001,0)" xlink:href="#F"/><use transform="matrix(0.05,0,0,0.05,100.85000000000001,0)" xlink:href="#n"/><use transform="matrix(0.05,0,0,0.05,110.85000000000001,0)" xlink:href="#z"/><use transform="matrix(0.05,0,0,0.05,116.80000000000001,0)" xlink:href="#n"/><use transform="matrix(0.05,0,0,0.05,126.80000000000001,0)" xlink:href="#N"/><use transform="matrix(0.05,0,0,0.05,141.75,0)" xlink:href="#o"/><use transform="matrix(0.05,0,0,0.05,150.75,0)" xlink:href="#O"/><use transform="matrix(0.05,0,0,0.05,156.7,0)" xlink:href="#D"/><use transform="matrix(0.05,0,0,0.05,161.7,0)" xlink:href="#z"/><use transform="matrix(0.05,0,0,0.05,167.64999999999998,0)" xlink:href="#p"/><use transform="matrix(0.05,0,0,0.05,177.64999999999998,0)" xlink:href="#y"/><use transform="matrix(0.05,0,0,0.05,182.64999999999998,0)" xlink:href="#B"/><use transform="matrix(0.05,0,0,0.05,192.64999999999998,0)" xlink:href="#z"/><use transform="matrix(0.05,0,0,0.05,198.59999999999997,0)" xlink:href="#L"/><use transform="matrix(0.05,0,0,0.05,208.59999999999997,0)" xlink:href="#P"/><use transform="matrix(0.05,0,0,0.05,218.54999999999995,0)" xlink:href="#E"/><use transform="matrix(0.05,0,0,0.05,227.54999999999995,0)" xlink:href="#F"/><use transform="matrix(0.05,0,0,0.05,237.54999999999995,0)" xlink:href="#p"/></g><g id="j"><use transform="matrix(0.05,0,0,0.05,0,0)" xlink:href="#u"/><use transform="matrix(0.05,0,0,0.05,10,0)" xlink:href="#F"/><use transform="matrix(0.05,0,0,0.05,20,0)" xlink:href="#p"/><use transform="matrix(0.05,0,0,0.05,30,0)" xlink:href="#z"/><use transform="matrix(0.05,0,0,0.05,35.95,0)" xlink:href="#n"/><use transform="matrix(0.05,0,0,0.05,45.95,0)" xlink:href="#y"/><use transform="matrix(0.05,0,0,0.05,50.95,0)" xlink:href="#r"/><use transform="matrix(0.05,0,0,0.05,54.900000000000006,0)" xlink:href="#u"/><use transform="matrix(0.05,0,0,0.05,64.9,0)" xlink:href="#L"/><use transform="matrix(0.05,0,0,0.05,74.9,0)" xlink:href="#I"/><use transform="matrix(0.05,0,0,0.05,84.9,0)" xlink:href="#M"/><use transform="matrix(0.05,0,0,0.05,90.85000000000001,0)" xlink:href="#F"/><use transform="matrix(0.05,0,0,0.05,100.85000000000001,0)" xlink:href="#n"/><use transform="matrix(0.05,0,0,0.05,110.85000000000001,0)" xlink:href="#z"/><use transform="matrix(0.05,0,0,0.05,116.80000000000001,0)" xlink:href="#n"/><use transform="matrix(0.05,0,0,0.05,126.80000000000001,0)" xlink:href="#N"/><use transform="matrix(0.05,0,0,0.05,141.75,0)" xlink:href="#o"/><use transform="matrix(0.05,0,0,0.05,150.75,0)" xlink:href="#O"/></g><g id="k"><use transform="matrix(0.05,0,0,0.05,0,0)" xlink:href="#u"/><use transform="matrix(0.05,0,0,0.05,10,0)" xlink:href="#F"/><use transform="matrix(0.05,0,0,0.05,20,0)" xlink:href="#p"/><use transform="matrix(0.05,0,0,0.05,30,0)" xlink:href="#z"/><use transform="matrix(0.05,0,0,0.05,35.95,0)" xlink:href="#n"/><use transform="matrix(0.05,0,0,0.05,45.95,0)" xlink:href="#y"/><use transform="matrix(0.05,0,0,0.05,50.95,0)" xlink:href="#r"/><use transform="matrix(0.05,0,0,0.05,54.900000000000006,0)" xlink:href="#u"/><use transform="matrix(0.05,0,0,0.05,64.9,0)" xlink:href="#L"/><use transform="matrix(0.05,0,0,0.05,74.9,0)" xlink:href="#K"/><use transform="matrix(0.05,0,0,0.05,84.9,0)" xlink:href="#M"/><use transform="matrix(0.05,0,0,0.05,90.85000000000001,0)" xlink:href="#O"/></g><path d="M212-179c-10-28-35-45-73-45-59 0-87 40-87 99 0 60 29 101 89 101 43 0 62-24 78-52l27 14C228-24 195 4 139 4 59 4 22-46 18-125c-6-104 99-153 187-111 19 9 31 26 39 46" id="Q"/><g id="l"><use transform="matrix(0.05,0,0,0.05,0,0)" xlink:href="#Q"/><use transform="matrix(0.05,0,0,0.05,12.950000000000001,0)" xlink:href="#w"/><use transform="matrix(0.05,0,0,0.05,16.900000000000002,0)" xlink:href="#n"/><use transform="matrix(0.05,0,0,0.05,26.900000000000002,0)" xlink:href="#o"/><use transform="matrix(0.05,0,0,0.05,35.900000000000006,0)" xlink:href="#o"/></g></defs></g></svg>